<svg id="visual" viewBox="0 0 960 540" width="960" height="540" xmlns="http://www.w3.org/2000/svg" xmlns:xlink="http://www.w3.org/1999/xlink" version="1.1"><rect x="0" y="0" width="960" height="540" fill="#001220"></rect><path d="M0 367L22.8 368.3C45.7 369.7 91.3 372.3 137 370.2C182.7 368 228.3 361 274 352.8C319.7 344.7 365.3 335.3 411.2 332.2C457 329 503 332 548.8 330.5C594.7 329 640.3 323 686 325.2C731.7 327.3 777.3 337.7 823 339.5C868.7 341.3 914.3 334.7 937.2 331.3L960 328L960 541L937.2 541C914.3 541 868.7 541 823 541C777.3 541 731.7 541 686 541C640.3 541 594.7 541 548.8 541C503 541 457 541 411.2 541C365.3 541 319.7 541 274 541C228.3 541 182.7 541 137 541C91.3 541 45.7 541 22.8 541L0 541Z" fill="#fa7268"></path><path d="M0 383L22.8 387.3C45.7 391.7 91.3 400.3 137 404.5C182.7 408.7 228.3 408.3 274 404.5C319.7 400.7 365.3 393.3 411.2 394C457 394.7 503 403.3 548.8 398.3C594.7 393.3 640.3 374.7 686 365C731.7 355.3 777.3 354.7 823 361C868.7 367.3 914.3 380.7 937.2 387.3L960 394L960 541L937.2 541C914.3 541 868.7 541 823 541C777.3 541 731.7 541 686 541C640.3 541 594.7 541 548.8 541C503 541 457 541 411.2 541C365.3 541 319.7 541 274 541C228.3 541 182.7 541 137 541C91.3 541 45.7 541 22.8 541L0 541Z" fill="#ef5f67"></path><path d="M0 429L22.8 427.7C45.7 426.3 91.3 423.7 137 420C182.7 416.3 228.3 411.7 274 408.2C319.7 404.7 365.3 402.3 411.2 410C457 417.7 503 435.3 548.8 439C594.7 442.7 640.3 432.3 686 423.3C731.7 414.3 777.3 406.7 823 412.7C868.7 418.7 914.3 438.3 937.2 448.2L960 458L960 541L937.2 541C914.3 541 868.7 541 823 541C777.3 541 731.7 541 686 541C640.3 541 594.7 541 548.8 541C503 541 457 541 411.2 541C365.3 541 319.7 541 274 541C228.3 541 182.7 541 137 541C91.3 541 45.7 541 22.8 541L0 541Z" fill="#e34c67"></path><path d="M0 456L22.8 459C45.7 462 91.3 468 137 471.7C182.7 475.3 228.3 476.7 274 476.8C319.7 477 365.3 476 411.2 476.3C457 476.7 503 478.3 548.8 476.3C594.7 474.3 640.3 468.7 686 470C731.7 471.3 777.3 479.7 823 482.8C868.7 486 914.3 484 937.2 483L960 482L960 541L937.2 541C914.3 541 868.7 541 823 541C777.3 541 731.7 541 686 541C640.3 541 594.7 541 548.8 541C503 541 457 541 411.2 541C365.3 541 319.7 541 274 541C228.3 541 182.7 541 137 541C91.3 541 45.7 541 22.8 541L0 541Z" fill="#d53867"></path><path d="M0 490L22.8 489.7C45.7 489.3 91.3 488.7 137 488C182.7 487.3 228.3 486.7 274 489.2C319.7 491.7 365.3 497.3 411.2 500C457 502.7 503 502.3 548.8 501C594.7 499.7 640.3 497.3 686 497.7C731.7 498 777.3 501 823 504.5C868.7 508 914.3 512 937.2 514L960 516L960 541L937.2 541C914.3 541 868.7 541 823 541C777.3 541 731.7 541 686 541C640.3 541 594.7 541 548.8 541C503 541 457 541 411.2 541C365.3 541 319.7 541 274 541C228.3 541 182.7 541 137 541C91.3 541 45.7 541 22.8 541L0 541Z" fill="#c62368"></path></svg>