<svg id="visual" viewBox="0 0 960 540" width="960" height="540" xmlns="http://www.w3.org/2000/svg" xmlns:xlink="http://www.w3.org/1999/xlink" version="1.1"><rect x="0" y="0" width="960" height="540" fill="#001220"></rect><path d="M0 329L22.8 326C45.7 323 91.3 317 137 309.8C182.7 302.7 228.3 294.3 274 296C319.7 297.7 365.3 309.3 411.2 318C457 326.7 503 332.3 548.8 325C594.7 317.7 640.3 297.3 686 286C731.7 274.7 777.3 272.3 823 280.8C868.7 289.3 914.3 308.7 937.2 318.3L960 328L960 541L937.2 541C914.3 541 868.7 541 823 541C777.3 541 731.7 541 686 541C640.3 541 594.7 541 548.8 541C503 541 457 541 411.2 541C365.3 541 319.7 541 274 541C228.3 541 182.7 541 137 541C91.3 541 45.7 541 22.8 541L0 541Z" fill="#c62368"></path><path d="M0 333L22.8 344.7C45.7 356.3 91.3 379.7 137 380.5C182.7 381.3 228.3 359.7 274 351.2C319.7 342.7 365.3 347.3 411.2 345.8C457 344.3 503 336.7 548.8 338.8C594.7 341 640.3 353 686 362.2C731.7 371.3 777.3 377.7 823 380C868.7 382.3 914.3 380.7 937.2 379.8L960 379L960 541L937.2 541C914.3 541 868.7 541 823 541C777.3 541 731.7 541 686 541C640.3 541 594.7 541 548.8 541C503 541 457 541 411.2 541C365.3 541 319.7 541 274 541C228.3 541 182.7 541 137 541C91.3 541 45.7 541 22.8 541L0 541Z" fill="#d53867"></path><path d="M0 437L22.8 429.5C45.7 422 91.3 407 137 407.7C182.7 408.3 228.3 424.7 274 425.5C319.7 426.3 365.3 411.7 411.2 398.8C457 386 503 375 548.8 379.7C594.7 384.3 640.3 404.7 686 413.2C731.7 421.7 777.3 418.3 823 412C868.7 405.7 914.3 396.3 937.2 391.7L960 387L960 541L937.2 541C914.3 541 868.7 541 823 541C777.3 541 731.7 541 686 541C640.3 541 594.7 541 548.8 541C503 541 457 541 411.2 541C365.3 541 319.7 541 274 541C228.3 541 182.7 541 137 541C91.3 541 45.7 541 22.8 541L0 541Z" fill="#e34c67"></path><path d="M0 421L22.8 421C45.7 421 91.3 421 137 430.3C182.7 439.7 228.3 458.3 274 466.7C319.7 475 365.3 473 411.2 463.2C457 453.3 503 435.7 548.8 426.2C594.7 416.7 640.3 415.3 686 420.2C731.7 425 777.3 436 823 444C868.7 452 914.3 457 937.2 459.5L960 462L960 541L937.2 541C914.3 541 868.7 541 823 541C777.3 541 731.7 541 686 541C640.3 541 594.7 541 548.8 541C503 541 457 541 411.2 541C365.3 541 319.7 541 274 541C228.3 541 182.7 541 137 541C91.3 541 45.7 541 22.8 541L0 541Z" fill="#ef5f67"></path><path d="M0 464L22.8 469.8C45.7 475.7 91.3 487.3 137 491C182.7 494.7 228.3 490.3 274 486.3C319.7 482.3 365.3 478.7 411.2 482.7C457 486.7 503 498.3 548.8 496.5C594.7 494.7 640.3 479.3 686 477.7C731.7 476 777.3 488 823 493.2C868.7 498.3 914.3 496.7 937.2 495.8L960 495L960 541L937.2 541C914.3 541 868.7 541 823 541C777.3 541 731.7 541 686 541C640.3 541 594.7 541 548.8 541C503 541 457 541 411.2 541C365.3 541 319.7 541 274 541C228.3 541 182.7 541 137 541C91.3 541 45.7 541 22.8 541L0 541Z" fill="#fa7268"></path></svg>