<svg id="visual" viewBox="0 0 900 600" width="900" height="600" xmlns="http://www.w3.org/2000/svg" xmlns:xlink="http://www.w3.org/1999/xlink" version="1.1"><rect x="0" y="0" width="900" height="600" fill="#001220"></rect><path d="M0 408L21.5 409.3C43 410.7 86 413.3 128.8 411C171.7 408.7 214.3 401.3 257.2 392.5C300 383.7 343 373.3 385.8 369.7C428.7 366 471.3 369 514.2 367.2C557 365.3 600 358.7 642.8 361.2C685.7 363.7 728.3 375.3 771.2 377.5C814 379.7 857 372.3 878.5 368.7L900 365L900 601L878.5 601C857 601 814 601 771.2 601C728.3 601 685.7 601 642.8 601C600 601 557 601 514.2 601C471.3 601 428.7 601 385.8 601C343 601 300 601 257.2 601C214.3 601 171.7 601 128.8 601C86 601 43 601 21.5 601L0 601Z" fill="#fa7268"></path><path d="M0 426L21.5 430.8C43 435.7 86 445.3 128.8 449.8C171.7 454.3 214.3 453.7 257.2 449.2C300 444.7 343 436.3 385.8 437.2C428.7 438 471.3 448 514.2 442.7C557 437.3 600 416.7 642.8 405.8C685.7 395 728.3 394 771.2 401C814 408 857 423 878.5 430.5L900 438L900 601L878.5 601C857 601 814 601 771.2 601C728.3 601 685.7 601 642.8 601C600 601 557 601 514.2 601C471.3 601 428.7 601 385.8 601C343 601 300 601 257.2 601C214.3 601 171.7 601 128.8 601C86 601 43 601 21.5 601L0 601Z" fill="#ef5f67"></path><path d="M0 477L21.5 475.5C43 474 86 471 128.8 467C171.7 463 214.3 458 257.2 454C300 450 343 447 385.8 455.5C428.7 464 471.3 484 514.2 488C557 492 600 480 642.8 470C685.7 460 728.3 452 771.2 458.8C814 465.7 857 487.3 878.5 498.2L900 509L900 601L878.5 601C857 601 814 601 771.2 601C728.3 601 685.7 601 642.8 601C600 601 557 601 514.2 601C471.3 601 428.7 601 385.8 601C343 601 300 601 257.2 601C214.3 601 171.7 601 128.8 601C86 601 43 601 21.5 601L0 601Z" fill="#e34c67"></path><path d="M0 506L21.5 509.5C43 513 86 520 128.8 524.2C171.7 528.3 214.3 529.7 257.2 529.8C300 530 343 529 385.8 529.3C428.7 529.7 471.3 531.3 514.2 529.2C557 527 600 521 642.8 522.7C685.7 524.3 728.3 533.7 771.2 537.2C814 540.7 857 538.3 878.5 537.2L900 536L900 601L878.5 601C857 601 814 601 771.2 601C728.3 601 685.7 601 642.8 601C600 601 557 601 514.2 601C471.3 601 428.7 601 385.8 601C343 601 300 601 257.2 601C214.3 601 171.7 601 128.8 601C86 601 43 601 21.5 601L0 601Z" fill="#d53867"></path><path d="M0 545L21.5 544.5C43 544 86 543 128.8 542.2C171.7 541.3 214.3 540.7 257.2 543.5C300 546.3 343 552.7 385.8 555.5C428.7 558.3 471.3 557.7 514.2 556.2C557 554.7 600 552.3 642.8 552.8C685.7 553.3 728.3 556.7 771.2 560.7C814 564.7 857 569.3 878.5 571.7L900 574L900 601L878.5 601C857 601 814 601 771.2 601C728.3 601 685.7 601 642.8 601C600 601 557 601 514.2 601C471.3 601 428.7 601 385.8 601C343 601 300 601 257.2 601C214.3 601 171.7 601 128.8 601C86 601 43 601 21.5 601L0 601Z" fill="#c62368"></path></svg>